<?xml version="1.0" standalone="no"?>
<!DOCTYPE svg PUBLIC "-//W3C//DTD SVG 1.1//EN" "http://www.w3.org/Graphics/SVG/1.1/DTD/svg11.dtd" >
<svg xmlns="http://www.w3.org/2000/svg">
<metadata>Generated by IcoMoon</metadata>
<defs>
<font id="icomoon" horiz-adv-x="1024">
<font-face units-per-em="1024" ascent="1024" descent="0" />
<missing-glyph horiz-adv-x="1024" />
<glyph unicode="&#x20;" d="" />
<glyph unicode="&#xe900;" glyph-name="next_song" d="M361.813 989.867c-143.36-44.373-290.133-197.973-331.093-348.16-98.987-368.64 245.76-706.56 614.4-607.573 71.68 17.067 150.187 58.027 174.080 88.747 23.893 27.307 64.853 44.373 92.16 34.133 30.72-13.653 44.373 13.653 44.373 81.92 0 112.64-10.24 119.467-102.4 68.267-37.547-20.48-58.027-58.027-47.787-81.92 30.72-78.507-122.88-157.013-303.787-157.013-150.187 0-184.32 13.653-300.373 133.12-119.467 119.467-133.12 150.187-133.12 310.613s13.653 191.147 133.12 310.613c119.467 119.467 150.187 133.12 310.613 133.12s191.147-13.653 310.613-133.12c75.093-71.68 133.12-163.84 133.12-204.8 0-37.547 17.067-71.68 37.547-71.68 44.373 0 10.24 126.293-68.267 235.52-133.12 187.733-358.4 269.653-563.2 208.213zM395.947 727.040c-27.307-27.307-27.307-368.64 0-395.947 20.48-17.067 293.547 139.947 324.267 187.733 17.067 30.72-296.96 232.107-324.267 208.213zM566.613 590.507l88.747-58.027-81.92-61.44c-112.64-85.333-129.707-78.507-129.707 58.027s6.827 139.947 122.88 61.44z" />
<glyph unicode="&#xe901;" glyph-name="aet" d="M88.747 918.187c-40.96-40.96-54.613-129.707-54.613-392.533 0-460.8 13.653-474.453 491.52-474.453 331.093 0 361.813 6.827 409.6 75.093 61.44 85.333 75.093 436.907 20.48 436.907-20.48 0-34.133-88.747-34.133-197.973s-17.067-215.040-40.96-238.933c-27.307-27.307-157.013-40.96-358.4-40.96-426.667 0-453.973 23.893-453.973 436.907 0 163.84 17.067 320.853 34.133 348.16 20.48 30.72 109.227 58.027 245.76 71.68l215.040 20.48-211.627 3.413c-150.187 6.827-225.28-6.827-262.827-47.787zM518.827 720.213c-177.493-180.907-245.76-276.48-245.76-341.333 0-75.093 17.067-88.747 92.16-88.747 64.853 0 157.013 64.853 331.093 232.107 293.547 279.893 307.2 296.96 259.413 382.293-68.267 129.707-180.907 81.92-436.907-184.32zM918.187 836.267c10.24-85.333 10.24-85.333-61.44-20.48-88.747 78.507-92.16 133.12-10.24 116.053 30.72-6.827 64.853-47.787 71.68-95.573zM819.2 785.067c37.547-44.373 17.067-78.507-139.947-218.453-170.667-157.013-187.733-163.84-245.76-112.64s-51.2 61.44 102.4 218.453c174.080 177.493 215.040 194.56 283.307 112.64zM423.253 354.987c-27.307-47.787-116.053-37.547-116.053 13.653 0 27.307 10.24 58.027 23.893 68.267 30.72 30.72 116.053-44.373 92.16-81.92z" />
<glyph unicode="&#xe902;" glyph-name="award" d="M512 1024c-281.6 0-512-230.4-512-512s230.4-512 512-512 512 230.4 512 512-230.4 512-512 512zM512 44.8c-256 0-467.2 211.2-467.2 467.2s211.2 467.2 467.2 467.2 467.2-211.2 467.2-467.2-211.2-467.2-467.2-467.2zM531.2 416c0-25.6-6.4-51.2-19.2-76.8-6.4-19.2-19.2-38.4-38.4-51.2s-44.8-25.6-76.8-38.4c-32-12.8-70.4-19.2-115.2-25.6h-25.6c-6.4 6.4-6.4 6.4-6.4 19.2s6.4 25.6 25.6 25.6c44.8 12.8 76.8 19.2 108.8 25.6 25.6 6.4 44.8 19.2 64 25.6 12.8 12.8 25.6 25.6 32 38.4s6.4 32 12.8 57.6c0 6.4 0 12.8 6.4 19.2s6.4 6.4 19.2 6.4c6.4 0 12.8-6.4 12.8-25.6zM774.4 646.4c0-6.4 0-19.2-6.4-32 0-12.8-6.4-19.2-6.4-32-6.4-6.4-6.4-12.8-12.8-19.2h-19.2l-12.8 12.8v19.2c6.4 12.8 6.4 19.2 6.4 25.6v19.2c0 6.4 0 12.8-6.4 19.2l-6.4 6.4h-409.6v-64c0-6.4 0-12.8-6.4-19.2-6.4 0-12.8-6.4-19.2-6.4s-12.8 6.4-19.2 6.4v76.8c0 19.2 0 32 6.4 38.4s25.6 12.8 44.8 12.8h44.8c-6.4 6.4-6.4 12.8-12.8 19.2l-12.8 12.8c-6.4 12.8-6.4 25.6 6.4 32 6.4 6.4 12.8 6.4 19.2 6.4s12.8-6.4 19.2-12.8c0-6.4 6.4-19.2 12.8-25.6s12.8-19.2 19.2-32h89.6v64c0 6.4 0 12.8 6.4 19.2 0 0 6.4 6.4 12.8 6.4s12.8 0 19.2-6.4c6.4-6.4 6.4-12.8 6.4-19.2v-64h89.6c6.4 6.4 12.8 19.2 19.2 25.6s12.8 19.2 19.2 25.6c6.4 6.4 6.4 12.8 12.8 12.8h19.2c12.8-6.4 19.2-19.2 6.4-38.4-6.4-6.4-6.4-12.8-12.8-19.2 0-6.4-6.4-6.4-6.4-12.8h32c19.2 0 38.4-6.4 51.2-12.8 0-6.4 6.4-19.2 6.4-44.8zM723.2 332.8c0-6.4 0-12.8-6.4-19.2s-6.4-6.4-12.8-6.4-12.8 0-19.2 6.4c-6.4 6.4-6.4 6.4-6.4 19.2v115.2h-320c-6.4 0-6.4 0-6.4-12.8v-108.8c0-12.8-6.4-19.2-25.6-19.2-6.4 0-12.8 0-12.8 6.4-6.4 6.4-6.4 6.4-6.4 19.2v108.8c0 19.2 6.4 32 12.8 38.4s19.2 12.8 38.4 12.8h307.2c19.2 0 32-6.4 38.4-12.8s12.8-19.2 12.8-38.4l6.4-108.8zM672 569.6c0-19.2-6.4-32-12.8-38.4s-19.2-12.8-38.4-12.8h-256c-6.4 0-12.8 6.4-12.8 6.4 0 12.8-6.4 19.2-6.4 25.6v70.4c0 6.4 6.4 12.8 6.4 12.8 6.4 6.4 12.8 6.4 19.2 6.4h256c19.2 0 32-6.4 38.4-12.8s12.8-19.2 12.8-38.4v-19.2h-6.4zM633.6 595.2c0 6.4 0 6.4-6.4 6.4h-230.4c-6.4 0-6.4 0-6.4-6.4v-32h236.8c6.4 0 6.4 0 6.4 6.4v25.6zM748.8 275.2c12.8-6.4 19.2-12.8 19.2-19.2v-19.2c-6.4-6.4-6.4-12.8-19.2-12.8-6.4 0-12.8 0-25.6 6.4-19.2 6.4-32 19.2-44.8 25.6l-76.8 38.4c-12.8 6.4-25.6 19.2-44.8 25.6-6.4 6.4-12.8 6.4-19.2 12.8s-6.4 12.8 0 19.2l12.8 12.8c6.4 0 12.8 0 19.2-6.4 19.2-6.4 38.4-19.2 51.2-25.6s32-12.8 44.8-19.2l38.4-19.2c19.2-6.4 32-12.8 44.8-19.2z" />
<glyph unicode="&#xe903;" glyph-name="sort" d="M97.2 771.6c-18.1 0-32.8 14.7-32.8 32.8s14.7 32.8 32.8 32.8h398c18.1 0 32.8-14.7 32.8-32.8s-14.7-32.8-32.8-32.8h-398zM97.2 469.7c-18.1 0-32.8 14.7-32.8 32.8s14.7 32.8 32.8 32.8h265.3c18.1 0 32.8-14.7 32.8-32.8s-14.7-32.8-32.8-32.8h-265.3zM97.2 177c-18.1 0-32.8 14.7-32.8 32.8s14.7 32.8 32.8 32.8h411c18.1 0 32.8-14.7 32.8-32.8s-14.7-32.8-32.8-32.8h-411zM717.1 177.8c-8.7 0-17.3 3.6-23.4 9.9l-208.4 210.4c-12.7 13-12.6 33.9 0.3 46.7 6.2 6.2 14.3 9.5 23 9.5 8.8 0 17.1-3.5 23.4-9.8l153-155.2v524.8c0 18.2 14.7 32.9 32.8 32.9s32.8-14.8 32.8-32.9v-522.1l152 151.3c6.2 6.2 14.7 9.6 23.7 9.6 9.1 0 17.5-3.4 23.7-9.7 12.9-12.9 13-34 0.2-46.9l-209.8-209c-6.3-6-14.8-9.5-23.3-9.5z" />
<glyph unicode="&#xe904;" glyph-name="select" d="M756.364 749.382l-286.255-349.091-158.255 151.273c-9.309 9.309-23.273 6.982-30.255 0-9.309-9.309-6.982-23.273 0-32.582l174.545-167.564c4.655-4.655 9.309-6.982 13.964-6.982h2.327c6.982 0 11.636 2.327 16.291 6.982l13.964 18.618c4.655 2.327 11.636 9.309 16.291 13.964l379.345 467.782c13.964 18.618 9.309 32.582 0 41.891-9.309 6.982-18.618 4.655-32.582-11.636l-104.727-130.327c-2.327-2.327-2.327-2.327-4.655-2.327zM930.909 863.418v0zM909.964 744.727h-6.982c-11.636 0-20.945-9.309-20.945-20.945v-537.6c0-25.6-20.945-46.545-46.545-46.545h-649.309c-25.6 0-46.545 20.945-46.545 46.545v651.636c0 25.6 20.945 46.545 46.545 46.545h584.145c11.636 0 20.945 9.309 20.945 20.945v4.655c0 11.636-9.309 20.945-20.945 20.945h-593.455s-62.836 0-83.782-74.473v-691.2s6.982-53.527 72.145-74.473h691.2s67.491 13.964 72.145 74.473v558.545c2.327 11.636-6.982 20.945-18.618 20.945z" />
<glyph unicode="&#xe905;" glyph-name="tip-off" d="M512 665.444c-12.288 0-22.26-9.973-22.26-22.26v-268.222c0-12.288 9.972-22.26 22.26-22.26s22.26 9.972 22.26 22.26v268.221c0 12.288-9.972 22.261-22.26 22.261zM512 307.824c-12.288 0-22.26-9.974-22.26-22.262v-44.7c0-12.287 9.972-22.26 22.26-22.26s22.26 9.973 22.26 22.26v44.7c0 12.288-9.972 22.261-22.26 22.261zM998.912 156.605l-423.224 736.056c-15.716 27.314-38.934 43.008-63.688 43.008s-47.972-15.694-63.688-43.008l-423.224-736.056c-8.86-15.427-13.357-30.675-13.357-45.345 0-32.457 23.909-65.225 77.312-65.225h845.914c53.381 0 77.29 32.768 77.312 65.225 0 14.67-4.497 29.918-13.357 45.345zM934.957 90.579h-845.914c-9.861 0-32.79 2.026-32.79 20.703 0 6.678 2.56 14.67 7.413 23.13l423.246 736.055c15.137 26.29 35.060 26.29 50.198 0l423.224-736.034c4.853-8.459 7.413-16.45 7.413-23.129 0-18.699-22.929-20.725-32.79-20.725z" />
<glyph unicode="&#xe906;" glyph-name="download" d="M924.444 354.702v-85.333c0-78.547-63.675-142.222-142.222-142.222v0h-540.444c-78.547 0-142.222 63.675-142.222 142.222v85.333c0 15.709 12.735 28.444 28.444 28.444v0h14.222c15.709 0 28.444-12.735 28.444-28.444v0-85.333c0-39.274 31.838-71.111 71.111-71.111v0h540.444c39.274 0 71.111 31.838 71.111 71.111v0 85.333c0 15.709 12.735 28.444 28.444 28.444h14.222c15.709 0 28.444-12.735 28.444-28.444v0zM503.182 337.92c2.571-2.556 6.114-4.136 10.027-4.136s7.456 1.58 10.027 4.136l240.212 240.070c5.154 5.149 8.342 12.264 8.342 20.124s-3.188 14.976-8.342 20.124v0l-9.671 10.098c-5.149 5.154-12.264 8.342-20.124 8.342s-14.976-3.188-20.124-8.342v0l-164.693-164.267v404.338c0 15.709-12.735 28.444-28.444 28.444h-14.222c-15.709 0-28.444-12.735-28.444-28.444v0-404.338l-164.836 164.267c-5.149 5.154-12.264 8.342-20.124 8.342s-14.976-3.188-20.124-8.342v0l-10.098-10.098c-5.154-5.149-8.342-12.264-8.342-20.124s3.188-14.976 8.342-20.124v0z" />
<glyph unicode="&#xe907;" glyph-name="add" d="M925.324 536.204h-394.705v394.705c0 11.171-7.447 18.618-18.618 18.618s-18.618-7.447-18.618-18.618v-394.705h-394.705c-11.171 0-18.618-7.447-18.618-18.618s7.447-18.618 18.618-18.618h394.705v-392.844c0-11.171 7.447-18.618 18.618-18.618s18.618 7.447 18.618 18.618v392.844h394.705c11.171 0 18.618 7.447 18.618 18.618s-7.447 18.618-18.618 18.618z" />
<glyph unicode="&#xe908;" glyph-name="playing" d="M692.396 301.516l-0.022 0.031c-6.111 8.751-4.467 20.737 3.789 27.501 56.615 46.385 89.907 115.976 89.907 189.68 0 74.82-34.098 145.075-92.073 191.446-8.332 6.663-10.098 18.633-4.089 27.449l0.023 0.034c6.674 9.792 20.299 11.944 29.556 4.546 67.696-54.104 107.515-136.119 107.515-223.475 0-85.958-38.791-167.117-104.769-221.236-9.254-7.59-22.985-5.789-29.837 4.024zM403.452 297.812v0 0zM808.949 130.075l-0.007 0.011c-6.68 8.668-5.374 21.088 3.020 28.11 107.68 90.082 169.039 220.953 169.039 362.068 0 141.946-61.949 273.312-170.66 363.422-8.424 6.983-9.781 19.396-3.142 28.095l0.007 0.009c7.048 9.232 20.38 10.771 29.308 3.343 53.985-44.912 98.836-101.073 130.433-163.53 36.486-72.124 54.986-149.958 54.986-231.339 0-80.978-18.325-158.464-54.466-230.307-31.279-62.18-75.704-118.188-129.198-163.096-8.896-7.466-22.233-5.985-29.32 3.214zM211.597 301.798h-124.836c-44.647 0-80.841 36.194-80.841 80.841v272.178c0 44.647 36.194 80.841 80.841 80.841h128.93c11.304 0 10.233-9.163 10.233-20.466h10.233c0-11.303-9.163-20.466-20.466-20.466h-128.93c-22.041 0-39.909-17.868-39.909-39.909v-272.179c0-22.041 17.868-39.909 39.909-39.909l129.844 0.084c11.303 0 20.466-9.162 20.466-20.466l-13.194-0.084c0-11.303-0.976-20.465-12.28-20.465zM530.025 39.696c-20.751 0-41.259 6.915-58.062 20.284l-0.277 0.225-265.273 245.953c-8.721 7.19-9.961 20.089-2.77 28.81v0c7.191 8.721 20.089 9.961 28.81 2.771l265.131-245.835c15.304-12.098 35.188-14.717 53.223-6.999 17.67 7.563 29.239 23.395 30.95 42.352 0.171 1.889 0.257 3.809 0.257 5.709v773.060c0 0.624-0.009 1.246-0.026 1.866-0.578 19.778-11.798 36.533-30.015 44.82-18.73 8.521-39.346 5.86-55.144-7.118l-265.331-246.252c-8.734-7.175-21.631-5.91-28.805 2.823l12.486 9.959c-7.174 8.733-17.958 11.501-9.224 18.676l264.892 246.422c27.721 22.773 65.303 27.657 98.074 12.748 32.268-14.678 52.951-45.67 53.979-80.881 0.030-1.017 0.046-2.039 0.046-3.063v-773.061c0-3.127-0.143-6.287-0.423-9.391-3.086-34.193-23.875-62.718-55.612-76.301-11.882-5.085-24.428-7.577-36.886-7.577z" />
<glyph unicode="&#xe909;" glyph-name="delete" d="M944 832h-188.8v44.8c0 54.4-44.8 99.2-99.2 99.2h-294.4c-54.4 0-99.2-44.8-99.2-99.2v-44.8h-179.2c-12.8 0-25.6-9.6-25.6-25.6 0-12.8 9.6-25.6 25.6-25.6h60.8v-633.6c0-54.4 44.8-99.2 99.2-99.2h550.4c54.4 0 99.2 44.8 99.2 99.2v633.6h51.2c12.8 0 25.6 9.6 25.6 25.6-3.2 12.8-9.6 25.6-25.6 25.6zM316.8 876.8c0 25.6 22.4 48 48 48h294.4c25.6 0 48-22.4 48-48v-44.8h-390.4v44.8zM841.6 156.8c0-28.8-16-57.6-41.6-57.6h-550.4c-25.6 0-54.4 19.2-54.4 44.8l3.2 636.8h643.2v-624zM368 643.2c-16 0-25.6-9.6-25.6-25.6v-342.4c0-16 12.8-25.6 25.6-25.6s25.6 9.6 25.6 25.6v342.4c-3.2 12.8-9.6 25.6-25.6 25.6zM528 643.2c-16 0-25.6-9.6-25.6-25.6v-342.4c0-16 12.8-25.6 25.6-25.6s25.6 9.6 25.6 25.6v342.4c-3.2 12.8-9.6 25.6-25.6 25.6zM688 643.2c-16 0-25.6-9.6-25.6-25.6v-342.4c0-16 12.8-25.6 25.6-25.6s25.6 9.6 25.6 25.6v342.4c-3.2 12.8-9.6 25.6-25.6 25.6z" />
<glyph unicode="&#xe90a;" glyph-name="remove" d="M553.223 552.919l216.801 216.842c5.085 5.122 8.228 12.178 8.228 19.968s-3.143 14.846-8.229 19.97l-1.186 1.186c-5.12 5.073-12.168 8.207-19.948 8.207s-14.828-3.134-19.95-8.21l0.002 0.002-216.801-217.129-216.842 217.211c-5.12 5.073-12.168 8.207-19.948 8.207s-14.828-3.134-19.95-8.21l0.002 0.002-1.229-1.188c-5.193-5.064-8.414-12.13-8.414-19.948s3.221-14.883 8.408-19.942l216.889-216.971-216.842-216.883c-5.073-5.12-8.207-12.168-8.207-19.948s3.134-14.828 8.21-19.95l-0.002 0.002 1.188-1.229c5.12-5.073 12.168-8.207 19.948-8.207s14.828 3.134 19.95 8.21l216.84 216.881 216.801-216.842c5.12-5.073 12.168-8.207 19.948-8.207s14.828 3.134 19.95 8.21l-0.002-0.002 1.229 1.188c5.073 5.12 8.207 12.168 8.207 19.948s-3.134 14.828-8.21 19.95l-216.881 216.922z" />
<glyph unicode="&#xe90b;" glyph-name="pause" d="M516.655 1014.691c-279.273 0-505.794-226.521-505.794-505.794s226.521-505.794 505.794-505.794 505.794 226.521 505.794 505.794c0 277.721-226.521 505.794-505.794 505.794zM516.655 32.582c-262.206 0-474.764 212.558-474.764 474.764s212.558 474.764 474.764 474.764c262.206 0 474.764-212.558 474.764-474.764s-212.558-474.764-474.764-474.764zM605.091 698.182c-26.376 0-46.545-20.17-46.545-46.545v-279.273c0-26.376 20.17-46.545 46.545-46.545s46.545 20.17 46.545 46.545v279.273c0 26.376-20.17 46.545-46.545 46.545zM418.909 698.182c-26.376 0-46.545-20.17-46.545-46.545v-279.273c0-26.376 20.17-46.545 46.545-46.545s46.545 20.17 46.545 46.545v279.273c0 26.376-20.17 46.545-46.545 46.545z" />
<glyph unicode="&#xe90c;" glyph-name="albums" d="M509.862 958.569c-246.711 0-446.71-200-446.71-446.71s200-446.71 446.71-446.71 446.71 199.998 446.71 446.709-200 446.711-446.71 446.711zM509.862 94.927c-230.263 0-416.93 186.667-416.93 416.932s186.667 416.931 416.93 416.931c230.264 0 416.93-186.666 416.93-416.932s-186.667-416.931-416.93-416.931zM509.862 638.995c-70.215 0-127.136-56.921-127.136-127.136s56.921-127.136 127.136-127.136 127.136 56.921 127.136 127.136-56.921 127.136-127.136 127.136zM509.862 412.711c-54.757 0-99.147 44.39-99.147 99.148s44.39 99.148 99.147 99.148c54.758 0 99.147-44.39 99.147-99.148s-44.39-99.148-99.147-99.148zM179.251 540.723c4.429-3.671 11.715-4.603 17.229-3.446 6.615 1.388 12.16 6.083 13.312 11.418 13.978 114.995 92.431 210.058 198.185 247.905 4.265 4.209 8.453 9.16 8.448 19.615 0 8.32-4.198 10.772-7.429 11.93-125.189-39.89-218.071-152.028-229.745-287.421z" />
<glyph unicode="&#xe90d;" glyph-name="car" d="M222.016 514.255c-29.469 0-53.35-23.919-53.35-53.387s23.88-53.388 53.35-53.388c29.506 0 53.387 23.919 53.387 53.388s-23.881 53.387-53.387 53.387zM1017.835 460.979c0 83.017-54.353 161.115-129.405 188.13-0.717 117.302-96.027 207.415-213.497 207.415h-301.211c-113.585 0-206.411-88.677-213.078-200.617-87.39-17.373-153.816-103.149-153.816-194.928 0-102.826 83.378-212.433 186.203-212.433h3.251c-0.922-3.925-1.425-8.012-1.425-12.219v-19.038c0-29.468 23.882-53.312 53.313-53.312s53.313 23.844 53.313 53.312v19.038c0 4.207-0.503 8.294-1.425 12.219h429.28c-0.922-3.925-1.426-8.012-1.426-12.219v-19.038c0-29.468 23.881-53.312 53.313-53.312s53.314 23.844 53.314 53.312v19.038c0 4.216-0.506 8.311-1.431 12.244 102.144 1.044 184.728 110.076 184.728 212.409zM394.099 783.315h261.871c75.939 0 139.466-53.105 155.455-124.211h-572.781c15.988 71.106 79.518 124.211 155.456 124.211zM823.659 326.037h-622.693c-74.511 0-134.939 60.43-134.939 134.941s60.427 134.94 134.939 134.94h622.694c74.548 0 134.938-60.428 134.938-134.94s-60.391-134.941-134.939-134.941zM808.383 514.255c-29.469 0-53.35-23.919-53.35-53.387s23.881-53.388 53.35-53.388c29.47 0 53.387 23.919 53.387 53.388s-23.917 53.387-53.387 53.387z" />
<glyph unicode="&#xe90e;" glyph-name="cart" d="M394.5 0c-53.762 0-97.5 43.738-97.5 97.5s43.738 97.5 97.5 97.5 97.5-43.738 97.5-97.5-43.738-97.5-97.5-97.5zM394.5 131c-18.472 0-33.5-15.028-33.5-33.5s15.028-33.5 33.5-33.5 33.5 15.028 33.5 33.5-15.028 33.5-33.5 33.5zM775.5 0c-53.762 0-97.5 43.738-97.5 97.5s43.738 97.5 97.5 97.5 97.5-43.738 97.5-97.5-43.738-97.5-97.5-97.5zM775.5 131c-18.472 0-33.5-15.028-33.5-33.5s15.028-33.5 33.5-33.5 33.5 15.028 33.5 33.5-15.028 33.5-33.5 33.5zM837.138 250.083c-1.527 0-2.89 0.059-4.068 0.145h-431.166c-40.291 0-75.033 15.057-103.262 44.753-23.21 24.416-41.882 58.526-57.082 104.278-26.507 79.791-38.625 182.417-51.453 291.069-2.264 19.172-4.604 38.998-7.001 58.409-8.959 72.566-32.673 124.128-68.579 149.111-35.95 25.013-73.792 17.002-74.165 16.916-17.2-4.067-34.438 6.579-38.504 23.778-4.066 17.198 6.58 34.437 23.779 38.503 2.655 0.627 65.711 14.897 125.444-26.663 39.553-27.52 67.621-71.847 83.81-132.179 0.234 0.005 0.461 0.010 0.7 0.006l686.876-1.434c37.604 0 60.011-15.34 72.175-28.208 27.451-29.042 26.080-68.284 25.833-72.663l-0.076-1.353-0.19-1.341c-0.19-1.346-19.52-136.427-56.264-292.828-16.892-71.897-41.622-121.935-73.504-148.723-21.928-18.422-42.082-21.576-53.303-21.576zM246.919 754.186c2.313-18.807 4.566-37.882 6.747-56.354 12.435-105.319 24.181-204.797 48.631-278.396 12-36.119 26.376-63.156 42.731-80.362 16.115-16.951 34.188-24.847 56.876-24.847l435.927-0.065c2.134 0.473 9.003 2.747 18.39 13.347 12.518 14.137 30.56 44.264 45.42 107.513 33.716 143.514 52.447 268.352 54.921 285.247-0.093 5.349-1.705 17.408-8.621 24.535-5.135 5.291-13.728 7.973-25.541 7.973l-675.481 1.409z" />
<glyph unicode="&#xe90f;" glyph-name="close" d="M511.175 959.672c-247.259 0-447.685-200.426-447.685-447.658 0-247.288 200.426-447.685 447.685-447.685s447.686 200.397 447.686 447.685c0 247.232-200.426 447.658-447.686 447.658zM511.175 120.233c-216.328 0-391.725 175.37-391.725 391.726s175.397 391.726 391.725 391.726c216.329 0 391.725-175.369 391.725-391.726s-175.395-391.726-391.725-391.726zM697.613 698.641c-12.871 12.842-33.748 12.842-46.618 0l-140.667-140.284-138.671 138.316c-12.789 12.733-33.501 12.733-46.289 0-12.759-12.761-12.759-33.446 0-46.179l138.673-138.317-139.63-139.243c-12.868-12.872-12.868-33.72 0-46.564 12.899-12.815 33.774-12.815 46.671 0l139.628 139.303 138.646-138.374c12.788-12.731 33.501-12.731 46.287 0 12.788 12.787 12.788 33.446 0 46.204l-138.646 138.318 140.615 140.257c12.897 12.842 12.897 33.718 0.001 46.561z" />
<glyph unicode="&#xe910;" glyph-name="collect_add" d="M767.625 540.68h-227.445v227.445c0 15.701-12.729 28.43-28.43 28.43s-28.43-12.729-28.43-28.43v-227.445h-227.445c-15.701 0-28.43-12.729-28.43-28.43s12.729-28.43 28.43-28.43h227.445v-227.445c0-15.701 12.729-28.43 28.43-28.43s28.43 12.729 28.43 28.43v227.445h227.445c15.701 0 28.43 12.729 28.43 28.43s-12.729 28.43-28.43 28.43zM909.779 1024h-796.056c-62.807 0-113.722-50.915-113.722-113.722v-796.056c0-62.806 50.915-113.721 113.722-113.721h796.056c62.806 0 113.721 50.915 113.721 113.721v796.056c0 62.807-50.915 113.722-113.721 113.722zM966.639 114.221c0-31.403-25.459-56.861-56.861-56.861h-796.055c-31.404 0-56.861 25.459-56.861 56.861v796.056c0 31.404 25.458 56.861 56.861 56.861h796.056c31.403 0 56.861-25.458 56.861-56.861v-796.056z" />
<glyph unicode="&#xe911;" glyph-name="coupon" d="M940.8 611.2c28.8 6.4 51.2 28.8 51.2 60.8v150.4c0 28.8-28.8 73.6-64 73.6h-832c-32 0-64-32-64-64v-163.2c0-25.6 19.2-51.2 44.8-57.6 38.4-9.6 76.8-51.2 76.8-99.2 0-44.8-41.6-86.4-76.8-99.2-25.6-3.2-44.8-28.8-44.8-54.4v-166.4c0-44.8 28.8-64 51.2-64h844.8c32 0 67.2 28.8 67.2 64v166.4c0 28.8-22.4 54.4-51.2 57.6-54.4 9.6-73.6 57.6-73.6 99.2-3.2 38.4 16 86.4 70.4 96zM928 352v-160l-3.2-3.2h-828.8v163.2c60.8 16 124.8 80 124.8 160 0 76.8-64 140.8-124.8 160v156.8s3.2 3.2 0 3.2h825.6c3.2-3.2 6.4-6.4 6.4-9.6v-147.2c-76.8-12.8-124.8-76.8-124.8-160 0-86.4 48-147.2 124.8-163.2zM672 640h-320c-19.2 0-32-12.8-32-32s12.8-32 32-32h320c19.2 0 32 12.8 32 32s-12.8 32-32 32zM672 448h-320c-19.2 0-32-12.8-32-32s12.8-32 32-32h320c19.2 0 32 12.8 32 32s-12.8 32-32 32z" />
<glyph unicode="&#xe912;" glyph-name="location" d="M512 0l-19.734 23.207c-13.948 16.391-341.678 404.317-341.678 636.638 0 200.778 162.118 364.155 361.412 364.155s361.412-163.377 361.412-364.155c0-232.321-327.73-620.247-341.678-636.638l-19.734-23.207zM512 971.616c-170.643 0-309.422-139.86-309.422-311.771 0-182.303 238.342-490.666 309.422-578.565 71.052 87.899 309.422 396.374 309.422 578.565 0 171.911-138.779 311.771-309.422 311.771v0zM496.941 512c-74.747 0-135.529 60.81-135.529 135.529s60.782 135.529 135.529 135.529c74.747 0 135.529-60.81 135.529-135.529s-60.782-135.529-135.529-135.529v0zM496.941 731.926c-46.514 0-84.397-37.855-84.397-84.397s37.882-84.397 84.397-84.397c46.514 0 84.397 37.855 84.397 84.397s-37.882 84.397-84.397 84.397v0z" />
<glyph unicode="&#xe913;" glyph-name="mail" d="M146.286 786.286h731.429c10.099 0 18.286-8.187 18.286-18.286v0-512c0-10.099-8.187-18.286-18.286-18.286h-731.429c-10.099 0-18.286 8.187-18.286 18.286v0 512c0 10.099 8.187 18.286 18.286 18.286v0zM164.571 749.714v-475.429h694.857v475.429h-694.857zM512 498.286l281.6 211.2c3.018 2.283 6.834 3.657 10.971 3.657 10.099 0 18.286-8.187 18.286-18.286 0-5.962-2.853-11.257-7.268-14.595l-0.046-0.033-292.571-219.429c-3.018-2.283-6.834-3.657-10.971-3.657s-7.953 1.374-11.017 3.69l0.046-0.033-292.571 219.429c-4.461 3.371-7.314 8.667-7.314 14.629 0 10.099 8.187 18.286 18.286 18.286 4.137 0 7.953-1.374 11.017-3.69l-0.046 0.033 281.6-211.2z" />
<glyph unicode="&#xe914;" glyph-name="me" d="M644.161 480.866c144.32-54.26 247.623-193.156 247.623-357.361 0-17.606-14.186-31.866-31.666-31.866-17.506 0-31.664 14.285-31.664 31.866 0 176.084-141.81 318.833-316.756 318.833-174.916 0-316.729-142.747-316.729-318.833 0-17.606-14.186-31.866-31.666-31.866s-31.664 14.285-31.664 31.866c0 164.205 103.282 303.074 247.623 357.361-72.301 44.916-120.915 124.711-120.915 216.542 0 140.847 113.466 255.044 253.401 255.044s253.396-114.197 253.396-255.044c-0.048-91.829-48.657-171.626-120.982-216.542v0 0zM511.7 888.689c-104.949 0-190.043-85.648-190.043-191.308 0-105.634 85.092-191.283 190.043-191.283s190.043 85.648 190.043 191.283c-0.002 105.633-85.088 191.308-190.043 191.308v0 0z" />
<glyph unicode="&#xe915;" glyph-name="scan" d="M192 608c-19.2 0-32 12.8-32 32v128c0 51.2 44.8 96 96 96h128c19.2 0 32-12.8 32-32s-12.8-32-32-32h-128c-19.2 0-32-12.8-32-32v-128c0-19.2-12.8-32-32-32zM384 160h-128c-51.2 0-96 44.8-96 96v128c0 19.2 12.8 32 32 32s32-12.8 32-32v-128c0-19.2 12.8-32 32-32h128c19.2 0 32-12.8 32-32s-12.8-32-32-32zM768 160h-128c-19.2 0-32 12.8-32 32s12.8 32 32 32h128c19.2 0 32 12.8 32 32v128c0 19.2 12.8 32 32 32s32-12.8 32-32v-128c0-51.2-44.8-96-96-96zM832 608c-19.2 0-32 12.8-32 32v128c0 19.2-12.8 32-32 32h-128c-19.2 0-32 12.8-32 32s12.8 32 32 32h128c51.2 0 96-44.8 96-96v-128c0-19.2-12.8-32-32-32zM832 480h-640c-19.2 0-32 12.8-32 32s12.8 32 32 32h640c19.2 0 32-12.8 32-32s-12.8-32-32-32z" />
<glyph unicode="&#xe916;" glyph-name="skin" d="M320 889.6c38.4-64 108.8-121.6 192-121.6s153.6 57.6 192 121.6c6.4 0 12.8-6.4 19.2-12.8 25.6-12.8 64-32 102.4-57.6l121.6-64c-12.8-25.6-25.6-64-38.4-89.6l-51.2 25.6c-6.4 6.4-19.2 6.4-25.6 6.4-12.8 0-25.6-6.4-32-12.8-19.2-12.8-32-32-32-51.2v-448c0-25.6-38.4-64-64-64h-384c-25.6 0-64 38.4-64 64v448c0 19.2-12.8 44.8-32 51.2-12.8 6.4-19.2 12.8-32 12.8-6.4 0-19.2 0-25.6-6.4l-51.2-25.6c-12.8 25.6-25.6 57.6-38.4 89.6l121.6 64c38.4 19.2 76.8 38.4 102.4 57.6 6.4 6.4 12.8 6.4 19.2 12.8zM704 960c-19.2 0-38.4-6.4-44.8-19.2-25.6-51.2-83.2-102.4-147.2-102.4s-121.6 51.2-147.2 102.4c-12.8 12.8-25.6 19.2-44.8 19.2l-307.2-160c-6.4-6.4-12.8-12.8-12.8-19.2v-6.4c19.2-44.8 70.4-166.4 70.4-166.4 6.4-6.4 12.8-12.8 19.2-12.8h12.8l89.6 38.4v-448c0-64 64-128 128-128h384c64 0 128 64 128 128v448l89.6-38.4h12.8c6.4 0 12.8 6.4 19.2 12.8 0 0 51.2 115.2 70.4 166.4v6.4c0 6.4 0 19.2-12.8 19.2l-307.2 160z" />
<glyph unicode="&#xe917;" glyph-name="ticket" d="M516.003 57.819c-248.256 0-450.177 201.922-450.177 450.177s201.922 450.177 450.177 450.177 450.177-201.922 450.177-450.177-201.922-450.177-450.177-450.177zM516.003 900.971c-216.795 0-392.976-176.181-392.976-392.976s176.181-392.976 392.976-392.976 392.976 176.181 392.976 392.976-176.181 392.976-392.976 392.976zM757.395 707.058h-486.787c-15.443 0-28.603 12.585-28.603 28.603s12.585 28.603 28.603 28.603h486.787c15.443 0 28.603-12.585 28.603-28.603s-12.585-28.603-28.603-28.603zM711.062 532.021h-397.551c-15.443 0-28.603 12.585-28.603 28.603v98.959c0 15.443 12.585 28.603 28.603 28.603 303.741 0 397.551 0 397.551 0s0 0 0 0c7.438 0 14.873-2.86 20.021-8.579 5.149-5.149 8.579-12.585 8.579-20.021v-98.959c-0.571-16.016-13.155-28.603-28.603-28.603zM342.112 588.651h340.922v42.33c-44.617 0-146.435 0-340.922 0v-42.33zM436.494 532.021c-15.443 0-28.603 12.585-28.603 28.603v175.037c0 15.443 12.585 28.603 28.603 28.603s28.603-12.585 28.603-28.603v-175.037c0-16.016-12.585-28.603-28.603-28.603zM590.368 532.021c-15.443 0-28.603 12.585-28.603 28.603v175.037c0 15.443 12.585 28.603 28.603 28.603s28.603-12.585 28.603-28.603v-175.037c0-16.016-12.585-28.603-28.603-28.603zM709.346 453.653h-390.687c-15.443 0-28.603 12.585-28.603 28.603s12.585 28.603 28.603 28.603h390.687c15.443 0 28.603-12.585 28.603-28.603s-12.585-28.603-28.603-28.603zM763.116 374.717h-497.653c-16.016 0-29.171 13.155-29.171 29.171s13.155 29.171 29.171 29.171h497.653c16.016 0 29.171-13.155 29.171-29.171s-13.155-29.171-29.171-29.171zM447.934 248.301c-15.443 0-28.028 12.585-28.603 28.028 0 15.443 12.585 28.603 28.028 28.603 42.901 0.571 42.901 5.721 42.901 15.443v75.506c0 15.443 12.585 28.603 28.603 28.603s28.603-12.585 28.603-28.603v-75.506c0-70.929-69.213-72.074-99.53-72.074 0.571 0 0 0 0 0zM277.472 268.321c-2.86 0-5.721 0-8.579 0-15.443 0.571-28.028 13.728-27.457 29.171s13.728 28.028 29.171 27.457c75.506-2.86 94.954 37.754 97.813 72.074 1.146 15.443 14.873 27.457 30.89 25.741 15.443-1.146 27.457-14.873 25.741-30.89-5.149-60.062-46.906-123.555-147.58-123.555zM747.67 268.321c-101.247 0-142.433 63.493-147.58 124.126-1.146 15.443 10.297 29.171 25.741 30.89 15.443 1.146 29.171-10.297 30.89-25.741 2.86-34.319 22.308-74.361 97.813-72.074 15.443 0.571 28.603-12.014 29.171-27.457 0.571-15.443-12.014-28.603-27.457-29.171-3.434-0.571-5.721-0.571-8.579-0.571z" />
<glyph unicode="&#xe918;" glyph-name="music_play" d="M511.999 1023.98c-282.758 0-511.979-229.221-511.979-511.979s229.221-511.98 511.979-511.98 511.979 229.222 511.979 511.98c0 282.758-229.221 511.979-511.979 511.979zM511.999 75.231c-241.222 0-436.769 195.55-436.769 436.77s195.548 436.77 436.769 436.77 436.769-195.549 436.769-436.77c0-241.221-195.549-436.77-436.769-436.77zM399.075 286.506l367.065 225.494-367.065 225.493z" />
<glyph unicode="&#xe919;" glyph-name="video" d="M271.644 149.333c-137.956 42.667-184.889 132.267-186.311 352.711 0 304.356 83.911 379.733 426.667 379.733 341.333 0 426.667-75.378 426.667-376.889 0-221.867-49.778-314.311-190.578-355.556-91.022-27.022-389.689-27.022-476.444 0zM768 234.667c78.222 45.511 99.556 103.822 99.556 270.222 0 176.356-21.333 227.556-113.778 274.489-59.733 29.867-78.222 32.711-256 28.444-162.133-4.267-199.111-8.533-241.778-32.711-78.222-45.511-99.556-103.822-99.556-270.222 0-176.356 21.333-227.556 113.778-274.489 59.733-29.867 78.222-32.711 256-28.444 162.133 4.267 199.111 8.533 241.778 32.711zM422.4 365.511c-14.222 12.8-12.8 271.644 1.422 280.178s230.4-122.311 230.4-140.8c0-8.533-36.978-36.978-81.067-62.578-45.511-27.022-95.289-56.889-112.356-68.267-15.644-9.956-34.133-14.222-38.4-8.533z" />
<glyph unicode="&#xe91a;" glyph-name="night" d="M744.612 791.388c31.226 31.226 20.227 84.322 40.454 84.322s9.229-53.096 40.454-84.322 84.701-20.227 84.701-40.454-53.096-9.229-84.322-40.454-20.227-84.322-40.454-84.322-9.229 53.096-40.454 84.322-84.322 20.227-84.322 40.454 52.717 9.229 83.943 40.454zM484.314 980.259c0.375 0.020 0.815 0.031 1.257 0.031 13.964 0 25.284-11.32 25.284-25.284 0-5.79-1.946-11.126-5.22-15.388l0.044 0.060c-44.365-58.072-71.084-131.687-71.084-211.542 0-193.47 156.839-350.309 350.309-350.309 51.457 0 100.323 11.095 144.336 31.022l-2.204-0.893c3.026 1.382 6.563 2.188 10.289 2.188 13.964 0 25.284-11.32 25.284-25.284 0-2.583-0.387-5.076-1.107-7.424l0.047 0.179c-59.732-195.117-238.247-334.561-449.331-334.561-259.031 0-469.017 209.986-469.017 469.017 0 249.215 194.372 453.031 439.788 468.121l1.326 0.065zM894.546 341.965c-32.824-9.196-70.524-14.5-109.457-14.538h-0.022c-221.208 0.251-400.436 179.634-400.436 400.877 0 71.424 18.679 138.486 51.419 196.566l-1.040-2.006c-195.501-37.73-341.148-207.48-341.148-411.247 0-231.103 187.346-418.449 418.449-418.449 169.443 0 315.364 100.712 381.167 245.541l1.068 2.625z" />
<glyph unicode="&#xe91b;" glyph-name="singal_loop" d="M1013.76 458.752c-0.512 15.872-14.336 29.184-30.72 29.184-1.536 0-3.072 0-5.12-0.512-14.336-2.56-25.6-15.872-25.6-31.232-0.512-142.848-117.248-259.584-260.608-259.584h-357.888c-145.408 0-263.68 118.272-263.68 263.68s118.272 264.192 263.68 264.192h500.224v-89.6l162.304 121.856-162.304 121.856v-91.648h-498.176c-179.712-0.512-325.632-146.432-325.632-325.632s145.92-325.632 325.632-325.632h356.352c177.664 0 322.048 144.384 322.048 321.024l-0.512 2.048zM564.736 294.4v350.208h-69.12v-11.776c0-18.432-4.608-32.256-13.824-41.472s-22.528-13.824-39.424-13.824h-12.8v-60.416h55.296v-222.72h79.872z" />
<glyph unicode="&#xe91c;" glyph-name="mutiple_options" d="M262 912h700c27.6 0 50-22.4 50-50s-22.4-50-50-50h-700c-27.6 0-50 22.4-50 50s22.4 50 50 50zM262 562h700c27.6 0 50-22.4 50-50s-22.4-50-50-50h-700c-27.6 0-50 22.4-50 50s22.4 50 50 50zM262 212h700c27.6 0 50-22.4 50-50s-22.4-50-50-50h-700c-27.6 0-50 22.4-50 50s22.4 50 50 50zM12 862c0-27.614 22.386-50 50-50s50 22.386 50 50v0c0 27.614-22.386 50-50 50s-50-22.386-50-50v0zM12 512c0-27.614 22.386-50 50-50s50 22.386 50 50v0c0 27.614-22.386 50-50 50s-50-22.386-50-50v0zM12 162c0-27.614 22.386-50 50-50s50 22.386 50 50v0c0 27.614-22.386 50-50 50s-50-22.386-50-50v0z" />
<glyph unicode="&#xe91d;" glyph-name="headphones" d="M512 951.767c-266.138 0-487.158-232.663-492.698-518.625-0.102-5.499 2.007-10.813 5.857-14.735 2.755-2.806 6.226-4.741 10.004-5.612v-273.469c0-11.305 9.175-20.48 20.48-20.48h7.434v-26.132c0-11.305 9.175-20.48 20.48-20.48h139.796c11.305 0 20.48 9.175 20.48 20.48v377.252c0 11.305-9.175 20.48-20.48 20.48h-91.812c30.188 201.882 193.741 354.14 380.457 354.14s350.269-152.259 380.436-354.13l0.010-0.010h-91.812c-11.305 0-20.48-9.175-20.48-20.48v-377.252c0-11.305 9.175-20.48 20.48-20.48h139.807c11.305 0 20.48 9.175 20.48 20.48v26.132h7.444c11.305 0 20.48 9.175 20.48 20.48v273.469c3.768 0.87 7.25 2.796 10.004 5.612 3.85 3.932 5.96 9.236 5.857 14.735-5.55 285.972-226.57 518.625-492.708 518.625z" />
<glyph unicode="&#xe91e;" glyph-name="list_loop" d="M335.872 135.68c-179.712 0-325.632 145.92-325.632 325.632 0 179.2 145.92 325.632 325.632 325.632h498.688v91.136l162.304-121.856-162.816-121.344v90.112h-500.224c-145.408 0-264.192-118.784-263.68-264.192 0-145.408 118.272-263.68 263.68-263.68h357.888c142.848 0 260.096 116.224 260.608 259.584 0 15.36 11.264 29.184 25.6 31.232 1.536 0.512 3.584 0.512 5.12 0.512 16.384 0 30.208-13.312 30.72-29.184v-2.048c0-177.152-144.384-321.024-322.048-321.024h-355.84z" />
<glyph unicode="&#xe91f;" glyph-name="search" d="M713.457 225.551c-188.115-112.851-434.206-62.524-561.965 119.959-133.572 190.735-87.221 453.662 103.544 587.234s453.662 87.221 587.234-103.544c127.759-182.453 90.925-430.953-79.48-569.103l138.812-198.234c3.605-4.904 5.768-11.062 5.768-17.725 0-16.634-13.484-30.118-30.118-30.118-10.359 0-19.496 5.23-24.916 13.193l-0.067 0.105-138.842 198.234zM704.181 291.298c163.509 114.477 203.234 339.848 88.757 503.356s-339.848 203.234-503.356 88.757c-163.509-114.507-203.234-339.848-88.757-503.356 114.507-163.509 339.848-203.234 503.356-88.757z" />
<glyph unicode="&#xe920;" glyph-name="comments" d="M185.158 251.183l80.873 51.363h562.106c44.172 0 79.5 34.513 79.5 76.567v358.819c0 42.054-35.375 76.614-79.5 76.614h-608.977c-44.148 0-79.523-34.56-79.523-76.614v-515.631l45.498 28.881zM219.136 861.091h609.001c69.609 0 126.045-55.156 126.045-123.183v-358.796c0-68.003-56.436-123.113-126.045-123.113h-548.561l-138.938-88.204c-4.82-3.078-10.697-4.907-17.001-4.907-10.55 0-19.903 5.12-25.712 13.011l-0.062 0.088c-5.353 7.471-4.748 16.593-4.748 24.692v537.251c-0.023 68.003 56.436 123.159 126.045 123.159zM302.545 465.455c0 12.853 10.42 23.273 23.273 23.273v0h232.727c12.853 0 23.273-10.42 23.273-23.273s-10.42-23.273-23.273-23.273v0h-232.727c-12.853 0-23.273 10.42-23.273 23.273v0zM302.545 628.364c0 12.853 10.42 23.273 23.273 23.273v0h395.636c12.853 0 23.273-10.42 23.273-23.273s-10.42-23.273-23.273-23.273h-395.636c-12.853 0-23.273 10.42-23.273 23.273v0z" />
<glyph unicode="&#xe921;" glyph-name="collect" d="M921.542 237.138v458.151c-0.226 3.471 0.266 20.029-10.156 41.491-9.104 21.692-39.692 47.175-77.272 45.737h-368.131c0 0 0-0.099-2.080 0.309-8.757 1.356-33.697 6.616-60.729 33.44-3.834 1.349-48.758 54.751-121.256 57.884h-92.030c-0.935 0-1.866-0.044-2.794-0.109-6.328-0.257-20.79-1.355-38.672-9.96-21.672-8.991-47.403-39.509-45.962-77.158v-549.785c0.224-3.466-0.265-20.031 10.157-41.491 9.104-21.694 39.689-47.174 77.272-45.738h644.226c3.446 0.218 20-0.272 41.467 10.070 21.671 8.992 47.401 39.511 45.961 77.159zM833.325 232.739h-643.438c-2.303 0.075-3.075 0.299-3.39 0.367-0.33 0.766-0.767 2.032-0.962 3.188-0.142 0.701-0.215 1.296-0.249 1.618v549.010c0.075 2.147 0.282 2.851 0.332 3.142 0.8 0.343 2.117 0.797 3.313 0.999 0.778 0.154 1.444 0.233 1.757 0.257h91.229c9.096 0.489 26.701-6.552 40.368-16.002 6.867-4.548 12.833-9.292 16.876-12.742 4.044-3.456 5.518-5.051 5.572-5.007 56.322-56.038 114.914-58.025 121.249-57.882h368.132c2.294-0.071 3.067-0.291 3.384-0.359 0.33-0.765 0.769-2.035 0.967-3.188 0.141-0.702 0.212-1.293 0.246-1.615v-457.387c-0.075-2.153-0.282-2.856-0.33-3.145-0.8-0.344-2.119-0.795-3.313-0.997-0.774-0.15-1.425-0.23-1.743-0.257zM373.943 420.403v91.63h276.093v-91.63h-276.093zM465.973 328.769v274.897h92.032v-274.896l-92.032-0.001z" />
<glyph unicode="&#xe922;" glyph-name="random_loop" horiz-adv-x="1239" d="M560.88 646.578c-9.332 0.108-17.551 4.777-22.545 11.878l-0.059 0.089c-59.648 83.308-156.121 136.954-265.122 136.954-0.283 0-0.566 0-0.849-0.001h-132.92c-0.001 0-0.003 0-0.005 0-15.421 0-27.922 12.501-27.922 27.922s12.501 27.922 27.922 27.922c0.002 0 0.003 0 0.005 0h132.963c128.079-0.1 241.354-63.392 310.343-160.379l0.792-1.172c2.861-4.312 4.566-9.607 4.566-15.301 0-15.156-12.076-27.492-27.131-27.911l-0.039-0.001zM1103.371 90.79h-125.651c-0.296-0.001-0.647-0.001-0.998-0.001-122.765 0-231.847 58.583-300.816 149.319l-0.679 0.931c-3.568 4.649-5.718 10.55-5.718 16.953 0 15.458 12.531 27.99 27.99 27.99 9.055 0 17.106-4.3 22.222-10.97l0.049-0.067c59.45-78.666 152.825-128.975 257.95-128.975 0.233 0 0.467 0 0.7 0.001h125.615c0.001 0 0.003 0 0.005 0 15.421 0 27.922-12.501 27.922-27.922s-12.501-27.922-27.922-27.922c-0.002 0-0.003 0-0.005 0v0zM273.678 90.79h-132.964c-0.001 0-0.003 0-0.005 0-15.421 0-27.922 12.501-27.922 27.922s12.501 27.922 27.922 27.922c0.002 0 0.003 0 0.005 0h132.963c0.593-0.004 1.294-0.006 1.995-0.006 178.947 0 324.056 144.878 324.431 323.737v0.036c0.378 209.501 170.11 379.233 379.575 379.611h46.573c0.001 0 0.003 0 0.005 0 15.421 0 27.922-12.501 27.922-27.922s-12.501-27.922-27.922-27.922c-0.002 0-0.003 0-0.005 0h-46.537c-0.593 0.004-1.294 0.006-1.995 0.006-178.947 0-324.056-144.878-324.431-323.737v-0.036c-0.378-209.501-170.11-379.233-379.575-379.611h-0.036zM1126.64 799.486l-199.445-114.349c-1.526-0.896-3.361-1.425-5.319-1.425-5.875 0-10.637 4.762-10.637 10.637 0 0.034 0 0.067 0 0.101v-0.005 228.697c0 0.028 0 0.062 0 0.096 0 5.875 4.762 10.637 10.637 10.637 1.958 0 3.793-0.529 5.369-1.453l-0.050 0.027 199.445-114.349c3.296-1.85 5.487-5.323 5.487-9.307s-2.191-7.458-5.434-9.28l-0.053-0.028z" />
<glyph unicode="&#xe923;" glyph-name="recognzie_songs" d="M883.201 844.797c0 44.265-20.405 89.705-76.793 100.115v-343.31c0-1.617 0-9.953 0-12.801 0-70.683-63.052-127.998-140.799-127.998-77.775 0-140.799 57.315-140.799 127.998 0 70.711 63.025 127.998 140.799 127.998 23.169 0 44.721-5.585 64.006-14.598v283.396c-0.014 21.22 17.183 38.404 38.376 38.404 4.534 0 12.801 0 12.801 0 101.608 0 179.203-75.978 179.203-179.203 0-25.589-76.793-24.801-76.793 0zM665.594 640.005c-35.348 0-64.006-22.907-64.006-51.205 0-28.257 28.644-51.205 64.006-51.205 35.348 0 64.006 22.934 64.006 51.205 0 28.298-28.644 51.205-64.006 51.205zM601.602 793.606c0 77.056-74.499 153.601-166.402 153.601s-165.6-77.346-166.402-153.601v-281.599c0-107.442 74.499-179.203 166.402-179.203 70.752 0 122.137 44.846 140.799 76.821 31.381 53.735 95 12.082 51.205-51.219-22.81-32.943-101.248-102.396-191.99-102.396-115.916 0-243.195 102.506-243.195 230.394v307.201c-0.014 134.316 108.866 230.394 243.182 230.394s243.195-101.677 243.195-230.394c0 0 0-17.46 0-25.602h-76.793c0 6.525 0 25.602 0 25.602zM729.6 384.009c0 0 17.211 51.633 38.404 51.219 51.592-0.982 38.404-51.219 38.404-51.219-49.311-147.504-176.12-262.936-332.79-279.373v-66.232c0-21.192-17.197-38.404-38.404-38.404s-38.404 17.197-38.404 38.404v66.204c-156.808 16.409-283.631 131.662-332.804 279.401 0 0 0 3.304 0 12.801 0 21.22 14.474 38.155 35.68 38.321 24.593 0.194 41.127-51.122 41.127-51.122 49.2-117.036 162.863-204.792 294.4-204.792 132.007 0 245.49 87.065 294.386 204.792z" />
<glyph unicode="&#xe924;" glyph-name="more_horiz" d="M512 598c46 0 86-40 86-86s-40-86-86-86-86 40-86 86 40 86 86 86zM768 598c46 0 86-40 86-86s-40-86-86-86-86 40-86 86 40 86 86 86zM256 598c46 0 86-40 86-86s-40-86-86-86-86 40-86 86 40 86 86 86z" />
<glyph unicode="&#xe925;" glyph-name="more_vert" d="M512 342c46 0 86-40 86-86s-40-86-86-86-86 40-86 86 40 86 86 86zM512 598c46 0 86-40 86-86s-40-86-86-86-86 40-86 86 40 86 86 86zM512 682c-46 0-86 40-86 86s40 86 86 86 86-40 86-86-40-86-86-86z" />
<glyph unicode="&#xe926;" glyph-name="power_settings_new" d="M760 804c82-70 136-176 136-292 0-212-172-384-384-384s-384 172-384 384c0 116 54 222 136 292l60-60c-66-54-110-138-110-232 0-166 132-298 298-298s298 132 298 298c0 94-42 176-110 230zM554 896v-426h-84v426h84z" />
<glyph unicode="&#xe927;" glyph-name="settings" d="M512 362c82 0 150 68 150 150s-68 150-150 150-150-68-150-150 68-150 150-150zM830 470l90-70c8-6 10-18 4-28l-86-148c-6-10-16-12-26-8l-106 42c-22-16-46-32-72-42l-16-112c-2-10-10-18-20-18h-172c-10 0-18 8-20 18l-16 112c-26 10-50 24-72 42l-106-42c-10-4-20-2-26 8l-86 148c-6 10-4 22 4 28l90 70c-2 14-2 28-2 42s0 28 2 42l-90 70c-8 6-10 18-4 28l86 148c6 10 16 12 26 8l106-42c22 16 46 32 72 42l16 112c2 10 10 18 20 18h172c10 0 18-8 20-18l16-112c26-10 50-24 72-42l106 42c10 4 20 2 26-8l86-148c6-10 4-22-4-28l-90-70c2-14 2-28 2-42s0-28-2-42z" />
<glyph unicode="&#xe928;" glyph-name="play_count" d="M854 512l-684-426v852zM692 512l-436 272v-544z" />
<glyph unicode="&#xe929;" glyph-name="netease_music" d="M671.088 992c9.703-1.58 19.507-2.7 29.102-4.808 33.708-7.423 63.892-22.347 90.526-44.22 17.477-14.348 24.612-33.054 19.554-55.223-4.544-19.928-17.289-33.35-36.952-39.084-18.59-5.423-35.405-1.307-50.671 10.932-19.344 15.508-40.82 26.238-66.561 23.943-21.811-1.945-42.672-24.892-40.796-45.38 0.84-9.166 4.117-18.123 6.442-27.133 4.117-15.928 8.349-31.817 12.535-47.722 0.724-2.747 1.393-4.933 5.229-5.143 58.631-3.206 111.45-22.269 158.526-57.643 46.283-34.782 84.177-76.512 109.574-128.958 18.636-38.485 29.086-79.127 31.849-121.791 3.673-56.686-2.988-112.15-25.056-164.525-51.286-121.682-141.517-200.163-268.357-236.252-48.266-13.733-97.732-19.095-147.803-16.255-104.065 5.921-194.218 45.24-270.171 116.329-74.933 70.124-121.651 156.339-137.905 257.557-22.114 137.664 11.804 261.105 101.505 368.151 49.278 58.802 110.765 101.179 182.468 128.537 24.713 9.431 51.76 0.653 65.323-20.932 13.851-22.036 10.606-50.391-8.59-67.945-5.423-4.957-12.271-8.871-19.118-11.664-109.318-44.632-181.542-123.231-210.224-237.855-27.826-111.224-3.221-213.018 67.828-302.711 44.54-56.227 102.073-93.989 171.715-112.531 45.014-11.983 90.488-12.769 136.342-5.68 47.302 7.314 91.476 22.868 131.097 49.994 54.523 37.327 93.358 87.111 112.78 150.418 16.777 54.679 17.352 109.87-3.377 164.128-16.683 43.668-46.158 77.267-83.134 104.976-19.756 14.799-40.968 26.37-65.152 32.035-1.097 0.257-2.217 0.382-4.218 0.708 3.299-12.66 6.373-24.674 9.548-36.657 7.664-28.915 15.508-57.791 23.047-86.745 16.379-62.926 0.537-118.056-42.797-165.038-40.081-43.45-91.11-62.35-149.647-56.686-65.168 6.31-111.683 41.676-142.038 98.937-15.897 29.989-22.752 62.303-24.021 96.121-2.016 53.845 10.552 103.56 41.396 147.99 33.125 47.73 79.018 78.349 133.229 97.381 4.264 1.494 8.583 2.863 13.586 4.521-2.91 11.073-5.961 21.88-8.583 32.798-3.61 15.010-8.256 29.934-10.069 45.186-5.377 45.084 8.466 84.309 39.614 117.138 25.507 26.884 56.453 43.932 93.514 49.029 4.085 0.561 8.154 1.183 12.224 1.774 5.563 0 11.12 0 16.683 0zM555.351 641.964c-32.105-10.201-59.829-25.771-80.605-51.698-27.817-34.712-33.366-74.583-24.488-116.966 4.607-21.998 15.367-40.836 34.253-53.978 23.616-16.433 55.776-15.726 80.473 1.37 25.242 17.477 36.478 45.668 29.102 74.583-8.077 31.67-16.667 63.215-25.025 94.822-4.506 17.017-8.995 34.035-13.71 51.869z" />
<glyph unicode="&#xe92a;" glyph-name="menu" d="M128 768h768v-86h-768v86zM128 470v84h768v-84h-768zM128 256v86h768v-86h-768z" />
<glyph unicode="&#xe92b;" glyph-name="music" d="M920.667 929.428v1.547c-0.159 0.364-0.432 0.614-0.592 0.956-2.207 8.397-9.512 14.7-18.591 14.7-1.092 0-2.048-0.341-3.072-0.523l-0.137 0.546-552.55-127.204c-8.875-0.296-15.997-7.487-15.997-16.43 0-0.478 0.228-0.865 0.273-1.343-0.341-1.047-0.751-2.071-0.751-3.118v-511.431c-34.657 21.8-83.627 27.443-131.004 10.718-72.499-25.623-113.163-93.161-90.817-150.869 22.323-57.731 99.214-83.763 171.691-58.14 64.512 22.778 103.515 78.757 95.642 131.482v376.24l500.622 114.529v-287.403c-34.657 21.8-83.627 27.443-131.004 10.718-72.499-25.6-113.163-93.161-90.817-150.869 22.323-57.731 99.191-83.763 171.691-58.14 50.153 17.681 84.423 55.546 93.798 96.256 0.137 0.319 0.114 0.683 0.25 1.024 1.024 4.71 1.57 9.444 1.98 14.199h0.159v1.161c0.159 2.344 0 4.665 0 7.009v584.385h-0.774zM263.191 126.202c-46.581-16.452-95.983 0.273-110.319 37.387-14.359 37.069 11.765 80.486 58.345 96.939s95.96-0.273 110.319-37.387c14.359-37.069-11.765-80.486-58.345-96.939zM809.324 262.736c-46.581-16.452-95.983 0.273-110.319 37.365-14.359 37.092 11.765 80.509 58.345 96.961s95.983-0.273 110.342-37.387c14.336-37.069-11.787-80.486-58.368-96.939zM875.383 757.737l-500.622-114.506v135.373l500.622 114.529v-135.396z" />
<glyph unicode="&#xe92c;" glyph-name="logout" d="M332.8 117.76c-148.48 68.267-230.4 204.8-230.4 380.587 0 124.587 39.253 220.16 114.347 291.84 46.080 42.667 52.907 44.373 73.387 20.48 18.773-22.187 15.36-34.133-20.48-73.387-78.507-83.627-102.4-151.893-95.573-266.24 6.827-117.76 44.373-184.32 145.067-262.827 54.613-40.96 76.8-46.080 191.147-46.080 107.52 0 138.24 6.827 186.027 39.253 102.4 73.387 146.773 150.187 153.6 267.947 8.533 117.76-17.067 186.027-102.4 274.773-44.373 47.787-46.080 54.613-22.187 75.093 22.187 18.773 34.133 15.36 80.213-27.307 78.507-75.093 116.053-168.96 116.053-296.96 0-177.493-90.453-319.147-242.347-382.293-88.747-37.547-261.12-34.133-346.453 5.12zM477.867 785.067c0 124.587 5.12 153.6 25.6 153.6s25.6-29.013 25.6-153.6c0-124.587-5.12-153.6-25.6-153.6s-25.6 29.013-25.6 153.6z" />
<glyph unicode="&#xe92d;" glyph-name="member" d="M264.533 228.693c-117.76 51.2-175.787 172.373-157.013 329.387 13.653 128 131.413 244.053 244.053 244.053 63.147 0 83.627-44.373 29.013-61.44-141.653-44.373-209.92-119.467-209.92-233.813 0-228.693 288.427-320.853 419.84-133.12 32.427 44.373 75.093 47.787 75.093 3.413 0-46.080-58.027-112.64-126.293-145.067-69.973-32.427-203.093-34.133-274.773-3.413zM849.92 233.813c-58.027 68.267-372.053 530.773-372.053 549.547 0 10.24 13.653 18.773 30.72 18.773 20.48 0 83.627-75.093 187.733-223.573l155.307-225.28 5.12 220.16c5.12 192.853 8.533 220.16 35.84 225.28s29.013-17.067 29.013-293.547c0-240.64-5.12-300.373-22.187-300.373-13.653 0-35.84 13.653-49.493 29.013zM332.8 435.2c-23.893 22.187-42.667 52.907-42.667 68.267 0 37.547 76.8 110.933 116.053 110.933 40.96 0 105.813-69.973 105.813-112.64s-66.56-109.227-109.227-109.227c-15.36 0-47.787 18.773-69.973 42.667zM424.96 522.24c-15.36 18.773-25.6 20.48-42.667 5.12-18.773-15.36-20.48-25.6-5.12-42.667 15.36-18.773 25.6-20.48 42.667-5.12 18.773 15.36 20.48 25.6 5.12 42.667z" />
<glyph unicode="&#xe92e;" glyph-name="b2f" d="M315.733 134.827c-148.48 68.267-230.4 204.8-230.4 380.587 1.707 226.987 151.893 392.533 375.467 407.893 95.573 6.827 112.64-32.427 34.133-87.040-172.373-122.88-126.293-365.227 80.213-424.96 73.387-20.48 174.080 18.773 237.227 93.867 76.8 88.747 107.52 73.387 92.16-49.493-8.533-49.493-25.6-114.347-39.253-141.653-37.547-69.973-129.707-153.6-203.093-184.32-88.747-37.547-261.12-34.133-346.453 5.12zM641.707 197.973c56.32 27.307 177.493 150.187 177.493 180.907 0 8.533-22.187 3.413-51.2-11.947-27.307-13.653-93.867-25.6-150.187-25.6-116.053 0-191.147 39.253-254.293 134.827-47.787 69.973-54.613 230.4-11.947 310.613l25.6 51.2-47.787-25.6c-107.52-54.613-175.787-172.373-175.787-300.373 0-138.24 68.267-249.173 196.267-314.027 66.56-35.84 218.453-34.133 291.84 0zM641.707 587.093c-5.12 22.187-25.6 44.373-44.373 49.493-44.373 11.947-44.373 56.32 0 68.267 18.773 5.12 40.96 29.013 51.2 52.907 20.48 56.32 47.787 56.32 68.267 0 10.24-23.893 32.427-47.787 51.2-52.907 46.080-11.947 42.667-54.613-6.827-71.68-22.187-8.533-44.373-32.427-49.493-51.2-11.947-47.787-56.32-46.080-69.973 5.12z" />
<glyph unicode="&#xe92f;" glyph-name="arrow_back" d="M854 554v-84h-520l238-240-60-60-342 342 342 342 60-60-238-240h520z" />
<glyph unicode="&#xe930;" glyph-name="musician" d="M177.778 59.733c-49.778 28.444-62.578 59.733-64 147.911 0 132.267 68.267 246.044 196.267 327.111 2.844 1.422-9.956 28.444-27.022 61.156-42.667 83.911-34.133 219.022 18.489 288.711 55.467 72.533 125.156 100.978 231.822 93.867 103.822-5.689 173.511-49.778 211.911-129.422 32.711-69.689 29.867-189.156-7.111-257.422-15.644-29.867-27.022-55.467-24.178-56.889 132.267-85.333 196.267-194.844 196.267-331.378 0-76.8-5.689-96.711-35.556-125.156-44.089-45.511-149.333-51.2-149.333-8.533 0 17.067 14.222 29.867 38.4 36.978 22.756 5.689 48.356 15.644 56.889 24.178 27.022 22.756 21.333 133.689-8.533 194.844-25.6 48.356-115.2 142.222-140.8 145.067-5.689 0-76.8 2.844-159.289 2.844-166.4 2.844-194.844-8.533-274.489-106.667-32.711-41.244-44.089-72.533-49.778-132.267-7.111-88.178 5.689-113.778 68.267-126.578 29.867-5.689 42.667-15.644 42.667-36.978 0-22.756-8.533-28.444-45.511-28.444-25.6 0-59.733 8.533-75.378 17.067zM641.422 595.911c49.778 49.778 55.467 62.578 55.467 129.422s-5.689 79.644-55.467 129.422c-49.778 49.778-62.578 55.467-129.422 55.467s-79.644-5.689-129.422-55.467c-49.778-49.778-55.467-62.578-55.467-129.422s5.689-79.644 55.467-129.422c49.778-49.778 62.578-55.467 129.422-55.467s79.644 5.689 129.422 55.467zM483.556 103.822c0 44.089-7.111 64-28.444 78.222-22.756 14.222-28.444 32.711-28.444 92.444 0 88.178 15.644 109.511 85.333 109.511s85.333-21.333 85.333-109.511c0-59.733-5.689-78.222-28.444-92.444-21.333-14.222-28.444-34.133-28.444-78.222 0-51.2-4.267-61.156-28.444-61.156s-28.444 9.956-28.444 61.156zM536.178 264.533c11.378 29.867-18.489 59.733-39.822 38.4-18.489-18.489-7.111-61.156 15.644-61.156 8.533 0 18.489 9.956 24.178 22.756z" />
<glyph unicode="&#xe931;" glyph-name="cloud" d="M810 256c70 0 128 58 128 128s-58 128-128 128h-64v22c0 130-104 234-234 234-76 0-144-36-188-94 108-30 188-130 188-248h-86c0 94-76 172-170 172s-170-78-170-172 76-170 170-170h554zM826 596c110-8 198-100 198-212 0-118-96-214-214-214h-554c-142 0-256 114-256 256 0 132 100 240 228 254 54 102 160 174 284 174 156 0 284-110 314-258z" />
<glyph unicode="&#xe932;" glyph-name="child" d="M418.133 83.627c-27.307 6.827-75.093 25.6-104.107 40.96-54.613 29.013-160.427 138.24-160.427 165.547 0 10.24-10.24 17.067-22.187 17.067-39.253 0-97.28 76.8-97.28 126.293 0 25.6 17.067 63.147 39.253 85.333 20.48 20.48 52.907 69.973 69.973 107.52 35.84 81.92 134.827 182.613 203.093 208.213 122.88 47.787 160.427-10.24 42.667-63.147-92.16-40.96-179.2-138.24-194.56-218.453-6.827-42.667-23.893-64.853-51.2-75.093-64.853-25.6-40.96-102.4 30.72-102.4 17.067 0 30.72-10.24 30.72-22.187s27.307-54.613 59.733-93.867c81.92-95.573 211.627-138.24 319.147-107.52 95.573 29.013 179.2 93.867 213.333 165.547 15.36 32.427 40.96 58.027 58.027 58.027 66.56 0 81.92 90.453 17.067 107.52-18.773 5.12-35.84 30.72-42.667 66.56-13.653 71.68-109.227 189.44-180.907 218.453-30.72 13.653-51.2 34.133-51.2 52.907 0 97.28 216.747-51.2 278.187-189.44 18.773-42.667 52.907-93.867 73.387-114.347 22.187-20.48 40.96-56.32 40.96-78.507 0-46.080-58.027-131.413-90.453-133.12-11.947 0-44.373-32.427-71.68-71.68-29.013-39.253-83.627-88.747-119.467-109.227-76.8-40.96-213.333-61.44-290.133-40.96zM307.2 477.867c0 46.080 5.12 51.2 51.2 51.2s51.2-5.12 51.2-51.2c0-46.080-5.12-51.2-51.2-51.2s-51.2 5.12-51.2 51.2zM597.333 477.867c0 46.080 5.12 51.2 51.2 51.2s51.2-5.12 51.2-51.2c0-46.080-5.12-51.2-51.2-51.2s-51.2 5.12-51.2 51.2zM484.693 805.547c20.48 104.107 107.52 186.027 170.667 162.133 40.96-17.067 32.427-42.667-22.187-71.68-30.72-15.36-59.733-49.493-71.68-85.333-15.36-39.253-32.427-59.733-54.613-59.733-29.013 0-32.427 8.533-22.187 54.613z" />
<glyph unicode="&#xe933;" glyph-name="ice_cream" d="M421.547 30.72c-20.48 22.187-29.013 63.147-29.013 136.533v105.813h-58.027c-104.107 0-112.64 23.893-112.64 296.96 0 225.28 3.413 249.173 39.253 302.080 58.027 87.040 143.36 136.533 221.867 131.413 59.733-5.12 69.973-11.947 87.040-64.853 18.773-58.027 20.48-59.733 105.813-54.613 78.507 3.413 88.747 0 105.813-39.253 11.947-27.307 20.48-136.533 20.48-281.6 0-261.12-10.24-290.133-100.693-290.133-46.080 0-47.787-3.413-58.027-104.107-5.12-63.147-20.48-116.053-39.253-136.533-39.253-42.667-145.067-44.373-182.613-1.707zM563.2 100.693c8.533 18.773 17.067 64.853 17.067 102.4v69.973h-136.533v-69.973c0-85.333 25.6-134.827 68.267-134.827 18.773 0 40.96 15.36 51.2 32.427zM740.693 368.64c13.653 34.133 10.24 322.56-5.12 390.827-10.24 47.787-13.653 49.493-88.747 44.373-68.267-3.413-83.627 1.707-116.053 42.667-18.773 25.6-35.84 56.32-35.84 68.267 0 42.667-66.56 25.6-129.707-32.427-37.547-34.133-64.853-80.213-75.093-122.88-18.773-76.8-22.187-349.867-6.827-390.827s442.027-40.96 457.387 0zM327.68 711.68c1.707 78.507 35.84 151.893 81.92 175.787 54.613 29.013 59.733-20.48 10.24-93.867-23.893-35.84-44.373-81.92-44.373-104.107 0-23.893-10.24-40.96-25.6-40.96-17.067 0-23.893 18.773-22.187 63.147z" />
<glyph unicode="&#xe934;" glyph-name="game" d="M121.173 215.040c-76.8 97.28-27.307 445.44 76.8 554.667 59.733 61.44 165.547 68.267 233.813 15.36 54.613-42.667 105.813-42.667 160.427 0 68.267 52.907 174.080 46.080 233.813-15.36 102.4-105.813 155.307-448.853 83.627-544.427-27.307-37.547-51.2-47.787-114.347-51.2-76.8-5.12-87.040 0-150.187 66.56-56.32 59.733-78.507 71.68-133.12 71.68s-76.8-11.947-133.12-71.68c-59.733-61.44-75.093-69.973-145.067-69.973-63.147 0-83.627 8.533-112.64 44.373zM343.040 307.2c54.613 66.56 56.32 68.267 167.253 68.267 109.227 0 114.347-1.707 174.080-68.267 66.56-73.387 131.413-88.747 168.96-42.667 49.493 59.733 5.12 346.453-69.973 440.32-40.96 54.613-90.453 58.027-160.427 11.947-64.853-42.667-157.013-42.667-221.867 0-102.4 68.267-172.373 23.893-221.867-141.653-30.72-104.107-34.133-286.72-5.12-315.733 42.667-42.667 112.64-23.893 168.96 47.787zM307.2 469.333c0 34.133-8.533 42.667-42.667 42.667-27.307 0-42.667 10.24-42.667 25.6s15.36 25.6 42.667 25.6c34.133 0 42.667 8.533 42.667 42.667 0 27.307 10.24 42.667 25.6 42.667s25.6-15.36 25.6-42.667c0-34.133 8.533-42.667 42.667-42.667 27.307 0 42.667-10.24 42.667-25.6s-15.36-25.6-42.667-25.6c-34.133 0-42.667-8.533-42.667-42.667 0-27.307-10.24-42.667-25.6-42.667s-25.6 15.36-25.6 42.667zM716.8 477.867c0 22.187 11.947 34.133 34.133 34.133s34.133-11.947 34.133-34.133c0-22.187-11.947-34.133-34.133-34.133s-34.133 11.947-34.133 34.133zM597.333 597.333c0 22.187 11.947 34.133 34.133 34.133s34.133-11.947 34.133-34.133c0-22.187-11.947-34.133-34.133-34.133s-34.133 11.947-34.133 34.133z" />
<glyph unicode="&#xe935;" glyph-name="alarm" d="M221.867 97.28c0 17.067 11.947 44.373 23.893 61.44 20.48 27.307 18.773 35.84-15.36 73.387-75.093 80.213-97.28 155.307-90.453 286.72 6.827 139.947 51.2 221.867 162.133 296.96 58.027 40.96 80.213 46.080 209.92 46.080s151.893-5.12 209.92-46.080c110.933-75.093 155.307-157.013 162.133-296.96 6.827-131.413-15.36-206.507-88.747-285.013-34.133-35.84-35.84-46.080-15.36-73.387 11.947-17.067 22.187-44.373 22.187-61.44 0-46.080-58.027-37.547-85.333 10.24-18.773 35.84-27.307 39.253-63.147 25.6-22.187-8.533-87.040-15.36-141.653-15.36s-119.467 6.827-141.653 15.36c-35.84 13.653-44.373 10.24-63.147-25.6-25.6-47.787-85.333-56.32-85.333-11.947zM645.12 211.627c52.907 27.307 126.293 104.107 155.307 158.72 10.24 20.48 18.773 76.8 18.773 124.587 0 97.28-17.067 138.24-83.627 209.92-64.853 71.68-124.587 97.28-223.573 97.28-47.787 0-107.52-10.24-133.12-23.893-52.907-27.307-126.293-104.107-155.307-158.72-25.6-51.2-23.893-203.093 5.12-257.707 25.6-49.493 100.693-124.587 155.307-153.6 47.787-27.307 206.507-25.6 261.12 3.413zM392.533 346.453c0 11.947 23.893 44.373 51.2 71.68 47.787 44.373 51.2 58.027 51.2 165.547 0 92.16 5.12 116.053 25.6 116.053s25.6-25.6 25.6-133.12c0-128-1.707-134.827-56.32-187.733-59.733-58.027-97.28-69.973-97.28-32.427zM119.467 773.12c0 46.080 155.307 165.547 216.747 165.547s46.080-46.080-23.893-83.627c-35.84-17.067-80.213-47.787-97.28-68.267-35.84-39.253-95.573-47.787-95.573-13.653zM808.96 786.773c-17.067 20.48-61.44 51.2-95.573 68.267-63.147 32.427-81.92 69.973-47.787 92.16 35.84 22.187 238.933-122.88 238.933-172.373 0-35.84-58.027-29.013-95.573 11.947z" />
<glyph unicode="&#xe936;" glyph-name="arrow_downward" d="M854 512l-342-342-342 342 62 60 238-238v520h84v-520l240 238z" />
<glyph unicode="&#xe937;" glyph-name="arrow_forward" d="M512 854l342-342-342-342-60 60 238 240h-520v84h520l-238 240z" />
<glyph unicode="&#xe938;" glyph-name="arrow_upward" d="M170 512l342 342 342-342-62-60-238 238v-520h-84v520l-240-238z" />
<glyph unicode="&#xe939;" glyph-name="navigate_next" d="M426 768l256-256-256-256-60 60 196 196-196 196z" />
<glyph unicode="&#xe93a;" glyph-name="person" d="M382.35 524.089c-59.493 41.632-97.915 109.837-97.915 187.016 0 125.676 101.88 227.556 227.556 227.556s227.556-101.88 227.556-227.556c0-81.074-42.398-152.245-106.232-192.55l-0.938-0.553c161.735-55.865 277.845-209.38 277.845-390.002 0-15.709-12.735-28.445-28.445-28.445s-28.444 12.735-28.444 28.445v0c0 196.38-159.175 355.556-355.555 355.556s-355.556-159.176-355.556-355.556c0-15.709-12.735-28.445-28.445-28.445s-28.444 12.735-28.444 28.445v0c0 187.733 125.412 346.169 297.017 396.089zM512 540.444c94.257 0 170.667 76.41 170.667 170.667s-76.41 170.667-170.667 170.667v0c-94.257 0-170.667-76.41-170.667-170.667s76.41-170.667 170.667-170.667v0z" />
<glyph unicode="&#xe93b;" glyph-name="share" horiz-adv-x="1303" d="M800.582 211.006c-24.824 24.824-40.339 58.958-40.339 85.333 0 37.236-17.067 55.855-116.364 122.57-63.612 41.891-119.467 77.576-124.121 77.576s-23.273-13.964-41.891-31.030c-23.273-21.721-55.855-31.030-107.055-31.030-100.848 0-153.6 52.752-153.6 155.152 0 100.848 52.752 155.152 150.497 155.152 37.236 0 83.782-10.861 105.503-24.824 34.133-23.273 41.891-20.17 161.358 58.958 102.4 68.267 125.673 89.988 125.673 122.57 0 23.273 18.618 58.958 40.339 82.23 58.958 57.406 170.667 57.406 229.624 0 57.406-58.958 57.406-170.667 0-229.624-52.752-51.2-167.564-57.406-218.764-9.309-32.582 29.479-32.582 29.479-158.255-51.2-111.709-71.37-155.152-119.467-110.158-119.467 9.309 0 66.715-34.133 128.776-74.473 108.606-74.473 111.709-74.473 141.188-46.545 20.17 18.618 52.752 27.927 102.4 27.927 102.4 0 155.152-52.752 155.152-155.152s-52.752-155.152-155.152-155.152c-58.958 0-82.23 7.758-114.812 40.339zM974.352 266.861c10.861 10.861 18.618 37.236 18.618 58.958s-7.758 48.097-18.618 58.958c-10.861 10.861-37.236 18.618-58.958 18.618-51.2 0-77.576-26.376-77.576-77.576 0-21.721 7.758-48.097 18.618-58.958s37.236-18.618 58.958-18.618c21.721 0 48.097 7.758 58.958 18.618zM431.321 530.618c23.273 23.273 23.273 94.642 0 117.915s-94.642 23.273-117.915 0c-23.273-23.273-23.273-94.642 0-117.915 10.861-10.861 37.236-18.618 58.958-18.618s48.097 7.758 58.958 18.618zM974.352 809.891c10.861 10.861 18.618 37.236 18.618 58.958 0 51.2-26.376 77.576-77.576 77.576-21.721 0-48.097-7.758-58.958-18.618-23.273-23.273-23.273-94.642 0-117.915 10.861-10.861 37.236-18.618 58.958-18.618s48.097 7.758 58.958 18.618z" />
<glyph unicode="&#xe93c;" glyph-name="index" d="M140.8 147.2c-121.6 125.867-113.067 166.4 74.667 356.267 113.067 113.067 172.8 157.867 211.2 157.867 64 0 149.333-53.333 149.333-96 0-49.067-42.667-59.733-83.2-23.467-21.333 19.2-46.933 34.133-57.6 34.133s-85.333-66.133-164.267-145.067l-142.933-145.067 162.133-157.867 93.867 96c91.733 93.867 170.667 125.867 170.667 68.267 0-14.933-46.933-72.533-102.4-128-132.267-130.133-198.4-134.4-311.467-17.067zM480 405.333c-36.267 40.533-32 106.667 6.4 106.667 10.667 0 32-14.933 46.933-32s38.4-32 51.2-32c12.8 0 89.6 66.133 168.533 145.067l142.933 145.067-162.133 157.867-93.867-96c-91.733-93.867-170.667-125.867-170.667-68.267 0 14.933 46.933 72.533 102.4 128 132.267 130.133 198.4 134.4 309.333 19.2 121.6-125.867 110.933-174.933-76.8-362.667-168.533-168.533-247.467-196.267-324.267-110.933z" />
<glyph unicode="&#xe93d;" glyph-name="full_screen" d="M463.2 603.6l-209.9 209.9 171.6-0.8c16.8-0.1 30.5 13.5 30.6 30.3v0.1c0 16.8-13.5 30.4-30.3 30.5l-243.8 1.1c-15.3 0.1-28.5-12.5-30.5-27.7-0.2-1.3-0.3-2.6-0.3-3.9l-1.1-244c0-16.8 13.5-30.4 30.3-30.5s30.5 13.5 30.6 30.3l0.8 170.4 208.9-208.9c11.9-11.9 31.2-11.9 43.1 0 12 12 12 31.3 0 43.2zM873.1 177c0.2 1.3 0.3 2.6 0.3 3.9l1.1 244c0 16.8-13.5 30.4-30.3 30.5s-30.5-13.5-30.6-30.3l-0.8-170.4-209 208.8c-11.9 11.9-31.2 11.9-43.1 0-6-6-8.9-13.7-8.9-21.5s3-15.6 8.9-21.5l209.9-209.9-171.6 0.7c-16.8 0.1-30.5-13.5-30.6-30.3v-0.1c0-16.8 13.5-30.4 30.3-30.5l243.9-1.1c15.3-0.1 28.5 12.5 30.5 27.7z" />
<glyph unicode="&#xe93e;" glyph-name="thumbs_up" d="M38.684 61.44c-9.102 6.827-15.929 125.156-15.929 261.689 0 243.484 0 248.036 59.164 268.516 31.858 13.653 84.196 22.756 113.778 22.756 86.471 0 182.044 109.227 202.524 229.831 20.48 125.156 45.511 157.013 125.156 157.013 95.573 0 136.533-63.716 136.533-211.627v-129.707h143.36c81.92 0 154.738-11.378 170.667-27.307 40.96-40.96 34.133-177.493-20.48-350.436-75.093-245.76-54.613-236.658-509.724-236.658-213.902 0-398.222 6.827-405.049 15.929zM182.044 318.578c0 159.289-6.827 204.8-31.858 204.8-45.511 0-59.164-52.338-59.164-213.902 0-129.707 25.031-195.698 72.818-195.698 9.102 0 18.204 91.022 18.204 204.8zM826.027 207.076c50.062 104.676 100.124 332.231 75.093 354.987-9.102 9.102-86.471 20.48-172.942 25.031l-157.013 9.102-6.827 150.187c-6.827 170.667-50.062 216.178-75.093 77.369-18.204-116.053-86.471-225.28-170.667-273.067-68.267-38.684-68.267-40.96-68.267-238.933v-200.249l534.756 13.653 40.96 81.92z" />
<glyph unicode="&#xe93f;" glyph-name="arrow_down" d="M316 690l196-196 196 196 60-60-256-256-256 256z" />
<glyph unicode="&#xe940;" glyph-name="arrow_up" d="M316 366l-60 60 256 256 256-256-60-60-196 196z" />
<glyph unicode="&#xe941;" glyph-name="like_negative" d="M371.674 75.852c-125.156 79.644-261.689 221.867-310.993 324.267-28.444 58.785-41.719 121.363-41.719 199.111 0 204.8 102.4 310.993 295.822 310.993 70.163 0 111.881-11.378 147.911-39.822l49.304-37.926 49.304 37.926c36.030 28.444 77.748 39.822 147.911 39.822 193.422 0 295.822-106.193 295.822-310.993 0-128.948-39.822-229.452-142.222-348.919-87.23-100.504-284.444-231.348-348.919-231.348-28.444 0-92.919 26.548-142.222 56.889zM597.333 163.081c111.881 73.956 197.215 157.393 257.896 252.207 104.296 161.185 62.578 358.4-83.437 396.326-79.644 22.756-142.222-1.896-206.696-77.748l-53.096-60.681-51.2 60.681c-142.222 164.978-347.022 83.437-347.022-134.637 0-109.985 58.785-221.867 172.563-326.163 64.474-58.785 206.696-159.289 225.659-159.289 5.689 0 43.615 22.756 85.333 49.304z" />
</font>
</defs>
</svg>
